<svg width="26" height="26" viewBox="0 0 26 26" fill="none" xmlns="http://www.w3.org/2000/svg">
<path d="M13 5.00024C10.829 5.00024 10.556 5.01024 9.703 5.04824C8.85 5.08824 8.269 5.22224 7.76 5.42024C7.22609 5.62106 6.74249 5.93607 6.343 6.34324C5.93608 6.74294 5.62111 7.22648 5.42 7.76024C5.222 8.26824 5.087 8.85024 5.048 9.70024C5.01 10.5552 5 10.8272 5 13.0012C5 15.1732 5.01 15.4452 5.048 16.2982C5.088 17.1502 5.222 17.7312 5.42 18.2402C5.625 18.7662 5.898 19.2122 6.343 19.6572C6.787 20.1022 7.233 20.3762 7.759 20.5802C8.269 20.7782 8.849 20.9132 9.701 20.9522C10.555 20.9902 10.827 21.0002 13 21.0002C15.173 21.0002 15.444 20.9902 16.298 20.9522C17.149 20.9122 17.732 20.7782 18.241 20.5802C18.7746 20.3793 19.2578 20.0643 19.657 19.6572C20.102 19.2122 20.375 18.7662 20.58 18.2402C20.777 17.7312 20.912 17.1502 20.952 16.2982C20.99 15.4452 21 15.1732 21 13.0002C21 10.8272 20.99 10.5552 20.952 9.70124C20.912 8.85024 20.777 8.26824 20.58 7.76024C20.3789 7.22647 20.0639 6.74292 19.657 6.34324C19.2576 5.93592 18.774 5.62089 18.24 5.42024C17.73 5.22224 17.148 5.08724 16.297 5.04824C15.443 5.01024 15.172 5.00024 12.998 5.00024H13.001H13ZM12.283 6.44224H13.001C15.137 6.44224 15.39 6.44924 16.233 6.48824C17.013 6.52324 17.437 6.65424 17.719 6.76324C18.092 6.90824 18.359 7.08224 18.639 7.36224C18.919 7.64224 19.092 7.90824 19.237 8.28224C19.347 8.56324 19.477 8.98724 19.512 9.76724C19.551 10.6102 19.559 10.8632 19.559 12.9982C19.559 15.1332 19.551 15.3872 19.512 16.2302C19.477 17.0102 19.346 17.4332 19.237 17.7152C19.1087 18.0626 18.904 18.3767 18.638 18.6342C18.358 18.9142 18.092 19.0872 17.718 19.2322C17.438 19.3422 17.014 19.4722 16.233 19.5082C15.39 19.5462 15.137 19.5552 13.001 19.5552C10.865 19.5552 10.611 19.5462 9.768 19.5082C8.988 19.4722 8.565 19.3422 8.283 19.2322C7.9355 19.1042 7.62113 18.8998 7.363 18.6342C7.09675 18.3763 6.89172 18.0619 6.763 17.7142C6.654 17.4332 6.523 17.0092 6.488 16.2292C6.45 15.3862 6.442 15.1332 6.442 12.9962C6.442 10.8602 6.45 10.6082 6.488 9.76524C6.524 8.98524 6.654 8.56124 6.764 8.27924C6.909 7.90624 7.083 7.63924 7.363 7.35924C7.643 7.07924 7.909 6.90624 8.283 6.76124C8.565 6.65124 8.988 6.52124 9.768 6.48524C10.506 6.45124 10.792 6.44124 12.283 6.44024V6.44224ZM17.271 7.77024C17.1449 7.77024 17.0201 7.79508 16.9036 7.84332C16.7872 7.89156 16.6813 7.96228 16.5922 8.05142C16.503 8.14057 16.4323 8.2464 16.3841 8.36287C16.3358 8.47934 16.311 8.60418 16.311 8.73024C16.311 8.85631 16.3358 8.98115 16.3841 9.09762C16.4323 9.21409 16.503 9.31992 16.5922 9.40907C16.6813 9.49821 16.7872 9.56892 16.9036 9.61717C17.0201 9.66541 17.1449 9.69024 17.271 9.69024C17.5256 9.69024 17.7698 9.5891 17.9498 9.40907C18.1299 9.22903 18.231 8.98485 18.231 8.73024C18.231 8.47564 18.1299 8.23146 17.9498 8.05142C17.7698 7.87139 17.5256 7.77024 17.271 7.77024ZM13.001 8.89224C12.4561 8.88374 11.9149 8.98373 11.409 9.18639C10.9031 9.38904 10.4425 9.69032 10.0542 10.0727C9.66579 10.455 9.35736 10.9108 9.14684 11.4135C8.93632 11.9162 8.8279 12.4557 8.8279 13.0007C8.8279 13.5457 8.93632 14.0853 9.14684 14.588C9.35736 15.0907 9.66579 15.5465 10.0542 15.9288C10.4425 16.3112 10.9031 16.6124 11.409 16.8151C11.9149 17.0178 12.4561 17.1177 13.001 17.1092C14.0795 17.0924 15.1082 16.6522 15.865 15.8835C16.6217 15.1148 17.0459 14.0794 17.0459 13.0007C17.0459 11.9221 16.6217 10.8867 15.865 10.118C15.1082 9.34933 14.0795 8.90907 13.001 8.89224ZM13.001 10.3332C13.7083 10.3332 14.3867 10.6142 14.8869 11.1144C15.387 11.6145 15.668 12.2929 15.668 13.0002C15.668 13.7076 15.387 14.3859 14.8869 14.8861C14.3867 15.3863 13.7083 15.6672 13.001 15.6672C12.2937 15.6672 11.6153 15.3863 11.1151 14.8861C10.615 14.3859 10.334 13.7076 10.334 13.0002C10.334 12.2929 10.615 11.6145 11.1151 11.1144C11.6153 10.6142 12.2937 10.3332 13.001 10.3332Z" fill="white"/>
</svg>
