<svg width="88" height="88" viewBox="0 0 88 88" fill="none" xmlns="http://www.w3.org/2000/svg">
<path d="M71.5 16.5C68.541 19.3325 64.9825 21.56 61.039 22.979C56.925 23.705 45.54 18.425 39.93 23.815C38.995 24.75 37.84 25.685 36.63 26.62C33.99 25.465 29.92 23.705 26.95 22C23.98 20.295 16.5 16.5 16.5 16.5L0 35.75C0 35.75 4.07 41.25 6.6 44.88C8.25 47.3 10.285 50.985 11.605 53.46L9.735 55.66C9.416 56.2925 9.2235 57.035 9.2235 57.8215C9.2235 59.114 9.7295 60.291 10.56 61.16C11.319 61.7265 12.2705 62.0675 13.31 62.0675C14.3495 62.0675 15.301 61.7265 16.071 61.149C15.554 61.7485 15.2515 62.5185 15.2515 63.36C15.2515 64.4215 15.7355 65.3675 16.4945 65.9945C17.2865 66.462 18.238 66.737 19.25 66.737C20.262 66.737 21.2135 66.462 22.0275 65.9835C21.4115 66.748 21.054 67.705 21.054 68.75C21.054 69.795 21.4115 70.752 22.011 71.511C22.5555 71.7035 23.188 71.819 23.848 71.819C24.9865 71.819 26.0425 71.4725 26.917 70.884C26.6805 71.4065 26.5595 72.0005 26.5595 72.6275C26.5595 73.9145 27.0875 75.075 27.9455 75.9C28.6605 76.2245 29.502 76.4115 30.382 76.4115C31.625 76.4115 32.7855 76.0375 33.7425 75.394L36.5805 72.8255C39.1765 75.4105 42.757 77.011 46.7115 77.011C46.8215 77.011 46.937 77.011 47.047 77.0055C49.764 76.7745 52.041 75.0475 53.064 72.655C53.867 72.963 54.78 73.172 55.748 73.172C57.046 73.172 58.2505 72.798 59.268 72.1545C62.4855 70.026 61.7155 68.376 61.7155 68.376C62.403 68.6785 63.2005 68.8545 64.042 68.8545C65.8075 68.8545 67.397 68.0735 68.475 66.8415C69.443 65.846 70.0315 64.493 70.0315 63.008C70.0315 61.963 69.74 60.9895 69.234 60.159C69.278 60.1865 69.3165 60.1865 69.3495 60.1865C71.665 60.1865 73.678 58.9105 74.7285 57.0295C75.1025 56.089 75.306 55.033 75.306 53.933C75.306 52.052 74.701 50.3085 73.678 48.8895L73.6945 48.917C78.2045 48.037 78.0395 45.782 80.2395 42.482C82.3515 39.765 84.9255 37.521 87.868 35.838L71.5 16.5ZM71.225 55.33C68.805 57.75 66.935 56.705 62.81 53.57C58.685 50.435 50.49 44.55 50.49 44.55C50.8255 46.2275 51.601 47.685 52.6955 48.8455C54.45 50.82 59.675 55.33 62.15 57.64C63.69 59.07 67.65 61.93 65.34 64.13C63.03 66.33 61.215 64.13 57.42 61.05C53.625 57.97 45.155 50.38 45.155 50.38C45.1495 50.479 45.144 50.589 45.144 50.7045C45.144 52.1235 45.716 53.405 46.64 54.34C47.575 55.44 52.8 60.5 55 62.81C57.2 65.12 59.125 66.495 57.255 68.31C55.385 70.125 51.59 67.265 49.5 65.12C46.255 61.985 39.82 56.155 39.82 56.155C39.8145 56.243 39.8145 56.342 39.8145 56.4465C39.8145 58.0085 40.3535 59.4385 41.261 60.5715C42.845 62.6505 45.925 65.3455 47.795 67.4355C49.665 69.5255 50.765 71.2855 47.795 72.9355C44.825 74.5855 40.425 70.5155 38.5 68.5355V68.5245C38.5 67.958 38.291 67.441 37.95 67.045C37.0755 66.2365 35.893 65.736 34.6005 65.736C34.0285 65.736 33.4785 65.835 32.967 66.011C33.671 65.384 34.089 64.504 34.089 63.525C34.089 62.546 33.671 61.666 33 61.05C32.307 60.5275 31.438 60.214 30.4975 60.214C29.557 60.214 28.6825 60.5275 27.984 61.0555C28.6275 60.434 29.0235 59.5815 29.0235 58.63C29.0235 57.4585 28.424 56.43 27.5165 55.8305C26.675 55.297 25.6685 54.989 24.5905 54.989C23.2485 54.989 22.0165 55.473 21.0595 56.2705C21.582 55.6435 21.89 54.8405 21.89 53.9605C21.89 52.888 21.4225 51.9255 20.6855 51.26C19.7065 50.3525 18.392 49.797 16.951 49.797C15.9335 49.797 14.982 50.072 14.1625 50.556L10.505 44.3795C7.975 40.3645 5.005 36.1845 5.005 36.1845L17.545 20.9495C17.545 20.9495 22 23.6995 25.685 25.7895C27.5 26.8345 30.635 28.2095 33 29.3095C29.26 32.1145 26.125 34.8095 27.06 36.6795C28.6935 37.8565 30.734 38.566 32.9395 38.566C35.0075 38.566 36.9325 37.9445 38.5385 36.8775C40.59 35.497 43.1585 34.661 45.925 34.661C47.8335 34.661 49.6485 35.057 51.293 35.7775C54.34 37.8345 59.95 42.8945 65.065 46.0845C71.5 50.7595 72.765 53.7845 71.225 55.3245V55.33Z" fill="white"/>
</svg>
