<svg width="200" height="32" viewBox="0 0 200 32" fill="none" xmlns="http://www.w3.org/2000/svg">
<path d="M17.6056 2.77777C17.3111 2.16666 16.6889 1.77777 16.0056 1.77777C15.3222 1.77777 14.7056 2.16666 14.4056 2.77777L10.8333 10.1278L2.85556 11.3055C2.18889 11.4055 1.63333 11.8722 1.42778 12.5111C1.22222 13.15 1.38889 13.8555 1.86667 14.3278L7.65556 20.0555L6.28889 28.15C6.17778 28.8167 6.45556 29.4944 7.00556 29.8889C7.55556 30.2833 8.28333 30.3333 8.88333 30.0167L16.0111 26.2111L23.1389 30.0167C23.7389 30.3333 24.4667 30.2889 25.0167 29.8889C25.5667 29.4889 25.8444 28.8167 25.7333 28.15L24.3611 20.0555L30.15 14.3278C30.6278 13.8555 30.8 13.15 30.5889 12.5111C30.3778 11.8722 29.8278 11.4055 29.1611 11.3055L21.1778 10.1278L17.6056 2.77777Z" fill="#D4B754"/>
<path d="M59.6056 2.77777C59.3111 2.16666 58.6889 1.77777 58.0056 1.77777C57.3222 1.77777 56.7056 2.16666 56.4056 2.77777L52.8333 10.1278L44.8556 11.3055C44.1889 11.4055 43.6333 11.8722 43.4278 12.5111C43.2222 13.15 43.3889 13.8555 43.8667 14.3278L49.6556 20.0555L48.2889 28.15C48.1778 28.8167 48.4556 29.4944 49.0056 29.8889C49.5556 30.2833 50.2833 30.3333 50.8833 30.0167L58.0111 26.2111L65.1389 30.0167C65.7389 30.3333 66.4667 30.2889 67.0167 29.8889C67.5667 29.4889 67.8444 28.8167 67.7333 28.15L66.3611 20.0555L72.15 14.3278C72.6278 13.8555 72.8 13.15 72.5889 12.5111C72.3778 11.8722 71.8278 11.4055 71.1611 11.3055L63.1778 10.1278L59.6056 2.77777Z" fill="#D4B754"/>
<path d="M101.606 2.77777C101.311 2.16666 100.689 1.77777 100.006 1.77777C99.3222 1.77777 98.7056 2.16666 98.4056 2.77777L94.8333 10.1278L86.8556 11.3055C86.1889 11.4055 85.6333 11.8722 85.4278 12.5111C85.2222 13.15 85.3889 13.8555 85.8667 14.3278L91.6556 20.0555L90.2889 28.15C90.1778 28.8167 90.4556 29.4944 91.0056 29.8889C91.5556 30.2833 92.2833 30.3333 92.8833 30.0167L100.011 26.2111L107.139 30.0167C107.739 30.3333 108.467 30.2889 109.017 29.8889C109.567 29.4889 109.844 28.8167 109.733 28.15L108.361 20.0555L114.15 14.3278C114.628 13.8555 114.8 13.15 114.589 12.5111C114.378 11.8722 113.828 11.4055 113.161 11.3055L105.178 10.1278L101.606 2.77777Z" fill="#D4B754"/>
<path d="M143.606 2.77777C143.311 2.16666 142.689 1.77777 142.006 1.77777C141.322 1.77777 140.706 2.16666 140.406 2.77777L136.833 10.1278L128.856 11.3055C128.189 11.4055 127.633 11.8722 127.428 12.5111C127.222 13.15 127.389 13.8555 127.867 14.3278L133.656 20.0555L132.289 28.15C132.178 28.8167 132.456 29.4944 133.006 29.8889C133.556 30.2833 134.283 30.3333 134.883 30.0167L142.011 26.2111L149.139 30.0167C149.739 30.3333 150.467 30.2889 151.017 29.8889C151.567 29.4889 151.844 28.8167 151.733 28.15L150.361 20.0555L156.15 14.3278C156.628 13.8555 156.8 13.15 156.589 12.5111C156.378 11.8722 155.828 11.4055 155.161 11.3055L147.178 10.1278L143.606 2.77777Z" fill="#D4B754"/>
<path d="M185.606 2.77777C185.311 2.16666 184.689 1.77777 184.006 1.77777C183.322 1.77777 182.706 2.16666 182.406 2.77777L178.833 10.1278L170.856 11.3055C170.189 11.4055 169.633 11.8722 169.428 12.5111C169.222 13.15 169.389 13.8555 169.867 14.3278L175.656 20.0555L174.289 28.15C174.178 28.8167 174.456 29.4944 175.006 29.8889C175.556 30.2833 176.283 30.3333 176.883 30.0167L184.011 26.2111L191.139 30.0167C191.739 30.3333 192.467 30.2889 193.017 29.8889C193.567 29.4889 193.844 28.8167 193.733 28.15L192.361 20.0555L198.15 14.3278C198.628 13.8555 198.8 13.15 198.589 12.5111C198.378 11.8722 197.828 11.4055 197.161 11.3055L189.178 10.1278L185.606 2.77777Z" fill="#D4B754"/>
</svg>
